<svg width="44" height="44" viewBox="0 0 44 44" fill="none" xmlns="http://www.w3.org/2000/svg">
<path d="M39.7376 26.8855L36.9231 24.4793C37.0563 23.6629 37.1251 22.8293 37.1251 21.9957C37.1251 21.1621 37.0563 20.3285 36.9231 19.5121L39.7376 17.1058C39.9498 16.9241 40.1018 16.6821 40.1732 16.4119C40.2445 16.1417 40.232 15.8562 40.1372 15.5933L40.0985 15.4816C39.3237 13.3161 38.1635 11.3086 36.6739 9.55623L36.5965 9.46599C36.4158 9.25352 36.175 9.10078 35.9058 9.02792C35.6365 8.95505 35.3515 8.96546 35.0883 9.05779L31.595 10.2996C30.3059 9.24255 28.8665 8.40896 27.311 7.82459L26.6364 4.17224C26.5855 3.89742 26.4522 3.6446 26.2542 3.44735C26.0561 3.2501 25.8028 3.11777 25.5278 3.06794L25.4118 3.04646C23.1731 2.64255 20.8184 2.64255 18.5797 3.04646L18.4637 3.06794C18.1887 3.11777 17.9354 3.2501 17.7374 3.44735C17.5393 3.6446 17.406 3.89742 17.3551 4.17224L16.6762 7.84177C15.1332 8.42627 13.6962 9.25942 12.4223 10.3082L8.90318 9.05779C8.64007 8.96473 8.35486 8.95394 8.08547 9.02685C7.81607 9.09976 7.57524 9.25293 7.39498 9.46599L7.31764 9.55623C5.82983 11.3099 4.6698 13.317 3.89303 15.4816L3.85435 15.5933C3.66099 16.1304 3.81998 16.732 4.25396 17.1058L7.10279 19.5379C6.96959 20.3457 6.90514 21.1707 6.90514 21.9914C6.90514 22.8164 6.96959 23.6414 7.10279 24.4449L4.25396 26.8769C4.04168 27.0587 3.88975 27.3007 3.81836 27.5709C3.74698 27.8411 3.75954 28.1266 3.85435 28.3894L3.89303 28.5012C4.67076 30.6668 5.82232 32.6648 7.31764 34.4265L7.39498 34.5168C7.57568 34.7292 7.81652 34.882 8.08575 34.9549C8.35499 35.0277 8.63998 35.0173 8.90318 34.925L12.4223 33.6746C13.7028 34.7273 15.1337 35.5609 16.6762 36.141L17.3551 39.8105C17.406 40.0853 17.5393 40.3382 17.7374 40.5354C17.9354 40.7327 18.1887 40.865 18.4637 40.9148L18.5797 40.9363C20.839 41.3424 23.1525 41.3424 25.4118 40.9363L25.5278 40.9148C25.8028 40.865 26.0561 40.7327 26.2542 40.5354C26.4522 40.3382 26.5855 40.0853 26.6364 39.8105L27.311 36.1582C28.8658 35.5753 30.3134 34.739 31.595 33.6832L35.0883 34.925C35.3515 35.018 35.6367 35.0288 35.9061 34.9559C36.1755 34.883 36.4163 34.7298 36.5965 34.5168L36.6739 34.4265C38.1692 32.6605 39.3208 30.6668 40.0985 28.5012L40.1372 28.3894C40.3305 27.8609 40.1715 27.2594 39.7376 26.8855V26.8855ZM33.8723 20.0191C33.9797 20.6679 34.0356 21.334 34.0356 22C34.0356 22.666 33.9797 23.332 33.8723 23.9808L33.5887 25.7039L36.7985 28.4496C36.3119 29.5706 35.6977 30.6318 34.968 31.6121L30.9805 30.1984L29.6313 31.307C28.6044 32.1492 27.4614 32.8109 26.2239 33.275L24.5868 33.8894L23.8176 38.0574C22.6041 38.1949 21.3789 38.1949 20.1653 38.0574L19.3962 33.8808L17.7719 33.2578C16.5473 32.7937 15.4087 32.132 14.3903 31.2941L13.0411 30.1812L9.02779 31.6078C8.29732 30.6238 7.68717 29.5625 7.19732 28.4453L10.4415 25.6738L10.1622 23.9551C10.059 23.3148 10.0032 22.6531 10.0032 22C10.0032 21.3426 10.0547 20.6851 10.1622 20.0449L10.4415 18.3261L7.19732 15.5547C7.68287 14.4332 8.29732 13.3761 9.02779 12.3922L13.0411 13.8187L14.3903 12.7058C15.4087 11.8679 16.5473 11.2062 17.7719 10.7422L19.4004 10.1277L20.1696 5.95115C21.377 5.81365 22.6102 5.81365 23.8219 5.95115L24.5911 10.1191L26.2282 10.7336C27.4614 11.1976 28.6087 11.8594 29.6356 12.7015L30.9848 13.8101L34.9723 12.3965C35.7028 13.3804 36.3129 14.4418 36.8028 15.559L33.593 18.3047L33.8723 20.0191ZM22.0001 14.0078C17.8235 14.0078 14.4376 17.3937 14.4376 21.5703C14.4376 25.7469 17.8235 29.1328 22.0001 29.1328C26.1766 29.1328 29.5626 25.7469 29.5626 21.5703C29.5626 17.3937 26.1766 14.0078 22.0001 14.0078ZM25.4032 24.9734C24.9568 25.4211 24.4264 25.776 23.8423 26.0179C23.2583 26.2598 22.6322 26.3838 22.0001 26.3828C20.7153 26.3828 19.5079 25.8801 18.5969 24.9734C18.1493 24.5271 17.7943 23.9966 17.5525 23.4126C17.3106 22.8285 17.1866 22.2024 17.1876 21.5703C17.1876 20.2855 17.6903 19.0781 18.5969 18.1672C19.5079 17.2562 20.7153 16.7578 22.0001 16.7578C23.2848 16.7578 24.4922 17.2562 25.4032 18.1672C25.8508 18.6135 26.2058 19.144 26.4477 19.728C26.6895 20.312 26.8135 20.9381 26.8126 21.5703C26.8126 22.8551 26.3098 24.0625 25.4032 24.9734Z" fill="#35477D"/>
</svg>
