<svg width="194" height="44" viewBox="0 0 194 44" fill="none" xmlns="http://www.w3.org/2000/svg">
<path d="M25.734 34.037V10.3327H33.0277C35.1116 10.3327 36.973 10.8048 38.6119 11.7491C40.2616 12.6825 41.5478 14.0175 42.4703 15.7541C43.3929 17.4798 43.8542 19.4443 43.8542 21.6476V22.7384C43.8542 24.9417 43.3983 26.9008 42.4866 28.6156C41.5857 30.3305 40.3104 31.6601 38.6607 32.6044C37.0109 33.5486 35.1495 34.0262 33.0765 34.037H25.734ZM30.6181 14.2888V30.1134H32.9788C34.8891 30.1134 36.3489 29.4894 37.3583 28.2412C38.3676 26.993 38.8832 25.2076 38.9049 22.8849V21.6313C38.9049 19.2218 38.4056 17.3984 37.4071 16.1611C36.4086 14.9129 34.9487 14.2888 33.0277 14.2888H30.6181Z" fill="black"/>
<path d="M63.1628 34.037H46.9149V30.8135L54.583 22.6407C55.6358 21.4902 56.4118 20.4863 56.9111 19.6288C57.4212 18.7714 57.6763 17.9574 57.6763 17.1868C57.6763 16.134 57.4104 15.3091 56.8785 14.7121C56.3467 14.1043 55.5869 13.8004 54.5993 13.8004C53.5356 13.8004 52.6944 14.1694 52.0758 14.9075C51.468 15.6347 51.1641 16.5952 51.1641 17.7891H46.4427C46.4427 16.3456 46.7846 15.0269 47.4684 13.833C48.1631 12.6391 49.1399 11.7057 50.3989 11.0327C51.6579 10.349 53.0852 10.0071 54.6807 10.0071C57.1227 10.0071 59.0167 10.5932 60.3625 11.7654C61.7192 12.9376 62.3976 14.5927 62.3976 16.7309C62.3976 17.9031 62.0937 19.097 61.4859 20.3126C60.8781 21.5282 59.8361 22.9446 58.36 24.5618L52.9712 30.2437H63.1628V34.037Z" fill="black"/>
<path d="M84.4088 14.2888H77.1477V34.037H72.2636V14.2888H65.1002V10.3327H84.4088V14.2888Z" fill="black"/>
<path d="M95.9842 25.3595H92.0932V34.037H87.209V10.3327H96.0167C98.817 10.3327 100.977 10.9568 102.496 12.2049C104.016 13.4531 104.776 15.2168 104.776 17.4961C104.776 19.1133 104.423 20.4646 103.717 21.5499C103.023 22.6244 101.965 23.4819 100.543 24.1222L105.671 33.8091V34.037H100.429L95.9842 25.3595ZM92.0932 21.4034H96.033C97.2595 21.4034 98.2092 21.0941 98.8821 20.4754C99.555 19.8459 99.8915 18.983 99.8915 17.8868C99.8915 16.7689 99.5713 15.8898 98.9309 15.2494C98.3014 14.609 97.33 14.2888 96.0167 14.2888H92.0932V21.4034Z" fill="black"/>
<path d="M121.886 29.1529H113.323L111.695 34.037H106.501L115.325 10.3327H119.851L128.724 34.037H123.531L121.886 29.1529ZM114.642 25.1967H120.568L117.588 16.3239L114.642 25.1967Z" fill="black"/>
<path d="M130.938 34.037V10.3327H138.232C140.316 10.3327 142.177 10.8048 143.816 11.7491C145.466 12.6825 146.752 14.0175 147.675 15.7541C148.597 17.4798 149.058 19.4443 149.058 21.6476V22.7384C149.058 24.9417 148.603 26.9008 147.691 28.6156C146.79 30.3305 145.515 31.6601 143.865 32.6044C142.215 33.5486 140.354 34.0262 138.281 34.037H130.938ZM135.822 14.2888V30.1134H138.183C140.093 30.1134 141.553 29.4894 142.563 28.2412C143.572 26.993 144.088 25.2076 144.109 22.8849V21.6313C144.109 19.2218 143.61 17.3984 142.611 16.1611C141.613 14.9129 140.153 14.2888 138.232 14.2888H135.822Z" fill="black"/>
<path d="M166.886 23.7641H157.508V30.1134H168.514V34.037H152.624V10.3327H168.481V14.2888H157.508V19.9382H166.886V23.7641Z" fill="black"/>
<line x1="9.03027" y1="21.423" x2="23.6176" y2="21.423" stroke="black" stroke-width="3"/>
<line x1="170.185" y1="21.423" x2="184.772" y2="21.423" stroke="black" stroke-width="3"/>
<rect x="174.353" y="9.82355" width="13.8927" height="13.8927" transform="rotate(-45 174.353 9.82355)" fill="#618DFF"/>
<path d="M0 34.1357L9.82359 24.3122L19.6472 34.1357L9.82359 43.9593L0 34.1357Z" fill="#FF3087"/>
</svg>
